# xmcd
#
# Track frame offsets: 
#        150
#        14639
#        32534
#        47361
#        64399
#        79930
#        96075
#        113864
#        129212
#        145461
#        165271
#        181233
#        202533
#        222845
#        241168
#        258221
#        273055
#        289613
#        306568
#        326067
#        344062
#
# Disc length: 4726 seconds
#
# Revision: 1
# Processed by: cddbd v1.5.2PL0 Copyright (c) Steve Scherf et al.
# Submitted via: ExactAudioCopyFreeDBPlugin 1.0
#
DISCID=28127415
DTITLE=Rednex - Music Box
DYEAR=1900
DGENRE=Country
TTITLE0=Cotton-Eye Joe
TTITLE1=The Spirit of the Hawk
TTITLE2=Hittin' the Hay
TTITLE3=The Way I Mate
TTITLE4=Riding Alone
TTITLE5=The Devil Went to Geordia
TTITLE6=Wish You Were Here
TTITLE7=Where You Gonna Go
TTITLE8=Mary Lou
TTITLE9=Maggie Moonshine
TTITLE10=Old Pop In An Oak
TTITLE11=Hold Me For A While
TTITLE12=Mckenzie Brothers
TTITLE13=Nowhere In Idaho
TTITLE14=Get The Truck Loaded
TTITLE15=Fat Sally Lee
TTITLE16=Bottleneck Bob
TTITLE17=Shooter
TTITLE18=Rolling Home
TTITLE19=Mckenzie Brothers II (continued...)
TTITLE20=The Bad But True Story Of Ray Mingus, The Lumberjack Of Bulk 
TTITLE20=Rock City, And His Neverjack Stribe In Exploiting The So Far 
TTITLE20=Undis
EXTD=
EXTT0=
EXTT1=
EXTT2=
EXTT3=
EXTT4=
EXTT5=
EXTT6=
EXTT7=
EXTT8=
EXTT9=
EXTT10=
EXTT11=
EXTT12=
EXTT13=
EXTT14=
EXTT15=
EXTT16=
EXTT17=
EXTT18=
EXTT19=
EXTT20=
PLAYORDER=
